<?xml version="1.0" encoding="utf-8"?>
<!-- Generator: Adobe Illustrator 22.0.1, SVG Export Plug-In . SVG Version: 6.00 Build 0)  -->
<svg version="1.1" id="레이어_1" xmlns="http://www.w3.org/2000/svg" xmlns:xlink="http://www.w3.org/1999/xlink" x="0px"
	 y="0px" viewBox="0 0 400 200" style="enable-background:new 0 0 400 200;" xml:space="preserve">
<style type="text/css">
	g {fill:#FFF;}
	.st0{fill:#FFF;}
</style>
<g>
	<g>
		<g>
			<path d="M42.3,34.4c5.7,1.3,8.5,4.1,8.5,8.5c0,1.7-0.9,2.6-2.6,2.6h-1.2C44.9,43.9,43,43,41.3,43h-0.6
				c-13,5.5-19.1,15.2-18.3,29.2c0.9,8,7.4,17,19.5,26.8c14.4,11.6,21.5,22.6,21.5,32.9c-0.8,10.5-5.8,19.2-15.3,26.1
				c-7.1,5.8-17.5,8.7-31.4,8.7H15l-5.1-1v-1.6c0-1.3,7.9-3.3,23.7-6c7.2-3.2,12.6-7.1,16.2-11.7c3.6-4.5,4.8-10.6,3.4-18.1
				S43.8,111,28.8,98.8C18.5,89.3,13.3,80,13.3,70.9c0-6.2,4.3-14.9,12.9-26.1C33.3,37.9,38.6,34.4,42.3,34.4z"/>
			<path d="M85,119.5c5.6,0,8.5,3.4,8.7,10.2c0,8.7-2.5,17-7.6,24.7c0.6,1.6,1.1,2.3,1.6,2.3h2.5c3.8,0,8-3.7,12.8-11.1
				c1.1,2.2,1.7,3.7,1.7,4.6c-4.3,10.6-10,16-17.1,16c-4.8-0.6-8.1-0.8-10-0.8c0,1-2.4,2.2-7.3,3.5l-1.3-2.5V165
				c2.8-2.2,4.2-4.3,4.2-6.2c-2.3-7.3-3.4-13-3.4-17.1C69.8,130.5,74.9,123.1,85,119.5z M77.6,141.6c0,3.4,1.1,6.1,3.2,8.1
				c4-4.1,5.9-10.5,5.9-18.9c-0.7-1.7-1.2-2.6-1.6-2.6h-2.3C79.3,129.9,77.6,134.4,77.6,141.6z"/>
			<path d="M132.8,127.9h2.3c2.7,0,5.2,7.5,7.5,22.5h-0.3c8.2-12.8,14.1-19.9,17.6-21.4c3.5,0,6,4.4,7.5,13.2
				c1.5,8.8,2.6,13.7,3.5,14.6c0.9,0.9,1.7,1.4,2.5,1.4c0.8,0,5.3-6.8,13.5-20.3c0,2.3,0.4,3.5,1.3,3.5
				c-5.2,17.8-12.1,26.6-20.7,26.6l-3.1-1.8c-3.6-4.9-5.9-12.2-7.1-22.2l-1.1-0.6c-2.9,2-7.2,9.5-12.9,22.4h-4.5
				c-2,0-4.5-8.3-7.5-24.8h-0.1c-1.5,0-3.7,7.8-6.9,23.3l-4.5,2.6c-2.8,0-5.7-7.9-8.8-23.7h-1.5c-4.1,7.8-6.1,12.7-6.1,14.6
				c-3.2,0-4.7-1-4.7-3.1c0.5-6.9,5.1-14.7,13.8-23.5h1.6c4.2,3.2,6.4,5.9,6.4,7.8h3C123.7,139.1,126.8,135.4,132.8,127.9z"/>
			<path d="M188.8,128.5c1.3,1.2,1.9,3.6,1.9,7.3c-0.1,3.7-0.2,8.3-0.5,13.9c0.4,5.7,1.6,8.9,3.8,9.6l1.3,0.1
				c1.7-0.9,4.1-3.8,7.1-8.8c0.9-1.8,1.9-2.5,2.9-2.1c1.1,0.4,1.3,1.4,0.7,3.1c-0.1,1.2-1.3,3.6-3.6,7.3c-2.3,3.7-5.2,6.3-8.7,7.9
				l-2.8,0.6c-6.2-0.6-8.9-9.7-8.1-27.2C183.9,132.2,185.9,128.4,188.8,128.5z M192.3,102.4l2.7,0.1c1.7,0.4,2.5,1.3,2.5,2.8
				l-0.2,2.6c-0.4,1.5-2.1,2.8-5.2,4c-2.2-0.7-3.6-2.2-4.2-4.6C189.3,104.3,190.8,102.7,192.3,102.4z"/>
			<path d="M217.4,122.4c3.3,0,6.1,2.4,8.3,7.2c-0.5,2.9-2,4-4.5,3.2c-1.5-3-2.8-4.6-3.7-4.7c-3.2,2-5.2,6.2-5.8,12.6
				s-0.1,11.2,1.5,14.2c1.6,3.1,3.6,4.5,5.9,4.2c3.8-0.8,8.5-6.2,14.1-16.2l3,3.5c-4.2,8.4-7.9,14-11,16.7
				c-3.1,2.7-6.5,4.1-10.3,4.1c-5.5-1.2-9.1-4.5-10.8-10c-1.7-5.5-2.1-10.7-1.2-15.6c1-4.9,2.9-9.4,5.8-13.3
				C211.6,124.6,214.5,122.5,217.4,122.4z"/>
			<path d="M245.8,125.6c6.9,0,10.4,6.4,10.4,19.1v3.1c0,11.4-4.6,18.1-13.8,19.9c-7.4-1.1-11.4-7.3-12-18.4v-5.4
				C231.3,133.7,236.4,127.6,245.8,125.6z M240.8,136.5c-0.9,2.1-1.4,4.3-1.6,6.7c-0.2,2.4-0.1,5.4,0.2,9.1c0.3,3.7,1.7,6.2,4.2,7.4
				h0.3c3.7-3,5.5-9.7,5.4-20.3c0-3.4-0.9-5.4-2.6-5.9H245C243.1,133.4,241.7,134.4,240.8,136.5z"/>
			<path d="M287.1,32.9c8.6,0,12.9,8.5,12.9,25.5c0,17-6.8,44.3-20.4,81.7c-3.9,6.9-5.9,11-5.9,12.4v0.8c0.4,4.1,1.6,6.5,3.6,7.3
				s3.9,0.8,5.6,0c1.7-0.8,3.8-2.4,6.1-5.1c2.4-2.6,4.6-6.4,6.9-11.3h5c-1.6,4.1-3.4,7.9-5.4,11.3c-2,3.4-4.5,6.3-7.6,8.7
				c-3.1,2.4-5.9,3.8-8.5,4.2c-2.6,0.4-6.6-1.5-12.1-5.7c-0.7,0-3,3.7-6.8,11h-2c-0.6-1.7-1.4-2.5-2.4-2.5l7.2-18.1v-0.6
				c-2-11.9-3.2-20.4-3.6-25.5c-0.4-5.1-0.6-15.5-0.6-31.4c2.4-34.5,10.7-55.2,24.9-62.1L287.1,32.9z M267.2,95.5
				c0,6.9-0.1,12.6-0.2,17.2c0.8,19.7,1.9,29.6,3.3,29.6c2.9,0,9.3-18.7,19.4-56.1c2.3-16.2,3.4-25.5,3.4-27.8s-0.4-5.8-1.1-10.4
				c-0.7-4.6-2.3-7-4.7-7.3l-2.6,0.8c-5,1.3-10.1,11-15.2,29C267.9,80.3,267.2,88.6,267.2,95.5z"/>
			<path d="M308.6,125.6c6.9,0,10.4,6.4,10.4,19.1v3.1c0,11.4-4.6,18.1-13.8,19.9c-7.4-1.1-11.4-7.3-12-18.4v-5.4
				C294.1,133.7,299.2,127.6,308.6,125.6z M303.6,136.5c-0.9,2.1-1.4,4.3-1.6,6.7c-0.2,2.4-0.1,5.4,0.2,9.1c0.3,3.7,1.7,6.2,4.2,7.4
				h0.3c3.7-3,5.5-9.7,5.4-20.3c0-3.4-0.9-5.4-2.6-5.9h-1.6C305.9,133.4,304.5,134.4,303.6,136.5z"/>
			<path d="M348.6,124.5h4.2c2,3.3,3.8,15.2,5.4,35.6h2c7.1-13.6,12.1-21.5,15-23.9v3.7c-6.3,18.6-12.6,27.9-18.7,27.9h-1.9
				c-3.9-2-5.8-10.2-5.8-24.7V139c0-2.4-0.6-3.8-1.8-4.2c-1.6,5.5-3.2,14.7-4.9,27.5l-4.8,4.9c-2.5-0.8-3.7-2.9-3.7-6.1v-11
				c0-2.8-0.8-7-2.3-12.6h-1.1c-4,12.4-6.7,18.7-8.3,18.7h-1.8v-1.8c0-9.5,3.6-18.3,10.7-26.4h3c1,0,3.1,2.5,6.4,7.6h0.5
				C341.5,132,344.2,128.3,348.6,124.5z"/>
		</g>
	</g>
	<path class="st0" d="M379.7,116.1c2.4,0,4.8,3.1,7.3,9.3c0,5.5-2.2,8.2-6.7,8.2c-2.8-1.4-5-4.5-6.4-9.3
		C373.9,118.9,375.8,116.1,379.7,116.1z"/>
</g>
</svg>
