<?xml version="1.0" encoding="utf-8"?>
<!-- Generator: Adobe Illustrator 22.0.1, SVG Export Plug-In . SVG Version: 6.00 Build 0)  -->
<svg version="1.1" id="레이어_1" xmlns="http://www.w3.org/2000/svg" xmlns:xlink="http://www.w3.org/1999/xlink" x="0px"
	 y="0px" viewBox="0 0 400 300" style="enable-background:new 0 0 400 300;" xml:space="preserve">
<style type="text/css">
	.st0{fill:#E83954;}
</style>
<g>
	<g>
		<g>
			<path class="st0" d="M41,226.9c0,1.6,1.3,2.9,3,2.9h0.6v0.5H34.4v-0.5H35c1.6,0,2.9-1.3,3-2.9v-25.8c0-1.6-1.3-2.9-3-2.9h-0.6
				v-0.5h10.3v0.5H44c-1.6,0-2.9,1.3-3,2.9V226.9z M58.3,228c1.3,1.3,2.6,1.9,4.3,1.9v0.5h-1.9c-1.3,0-4.8-0.2-7-2.6l-11.2-13.6
				l11.1-13.8c0.8-1,0.2-2.2-1.1-2.2h-0.5v-0.5h9.8v0.5h-0.2c-1.9,0-3.8,0.8-5,2.2l-11.1,12.7L58.3,228z"/>
			<path class="st0" d="M77.2,197.8c5.9,0,9.6,3.4,9.6,9c0,7-7.7,10.9-13.6,7.8v-0.5c0,0,7.7,1.6,9.8-5c0.2-0.6,0.3-1.8,0.3-2.9
				c-0.2-4.3-2.2-7.2-6.2-7.2h-5.4v27.9c0,1.6,1.3,2.9,3,2.9h0.6v0.5H65v-0.5h0.6c1.6,0,2.9-1.3,3-2.9v-26.1c-0.2-1.4-1.4-2.7-3-2.7
				H65v-0.5L77.2,197.8L77.2,197.8z"/>
			<path class="st0" d="M126.2,214.1c0,10.3-6.9,17-16.8,17s-16.8-6.7-16.8-17c0-10.3,6.9-17,16.8-17
				C119.3,197.1,126.2,203.8,126.2,214.1z M122.5,214.1c0-9.3-5.3-15.5-13.1-15.5s-13.1,6.2-13.1,15.5c0,9.3,5.3,15.5,13.1,15.5
				S122.5,223.4,122.5,214.1z"/>
			<path class="st0" d="M142.5,197.8c5.9,0,9.6,3.4,9.6,9c0,7-7.7,10.9-13.6,7.8v-0.5c0,0,7.7,1.6,9.8-5c0.2-0.6,0.3-1.8,0.3-2.9
				c-0.2-4.3-2.2-7.2-6.2-7.2h-5.4v27.9c0,1.6,1.3,2.9,3,2.9h0.6v0.5h-10.3v-0.5h0.6c1.6,0,2.9-1.3,3-2.9v-26.1
				c-0.2-1.4-1.4-2.7-3-2.7h-0.6v-0.5L142.5,197.8L142.5,197.8z"/>
			<path class="st0" d="M195.2,226.9c1,2.1,2.7,2.9,4.2,2.9h0.3v0.5h-10.4v-0.5h0.5c1.3,0,2.4-1.1,1.8-2.9l-3-8H176l-3,8
				c-0.6,1.9,0.6,2.9,1.8,2.9h0.5v0.5h-9.5v-0.5h0.5c1.4,0,3.2-0.8,4.2-2.9l10.6-25.1c0,0,1.8-3.8,1.8-4.8h0.5L195.2,226.9z
				 M187.8,217.6l-5.6-14.9l-5.9,14.9H187.8z"/>
			<path class="st0" d="M232.9,215.2c-1.4,0-2.4,0.8-2.4,2.1v7.7c-2.1,2.9-6.4,5.9-13.5,5.9c-9.9,0-16.8-6.9-16.8-17
				c0-10.3,6.9-17,16.7-17c5.1,0,8.5,1.4,11.4,3.2l1,6.6h-0.3c-1.4-5.3-5.6-8.3-11.9-8.3c-7.8,0-13.3,6.2-13.3,15.5
				s5.3,15.5,13.3,15.5c4,0,7.8-1.6,10.6-4v-8.3c0-1.3-1-2.1-2.4-2.1h-0.8v-0.5h9.1v0.5L232.9,215.2z"/>
			<path class="st0" d="M255.8,230.4h-19.4v-0.5h0.6c1.6,0,2.9-1.3,3-2.9V201c-0.2-1.4-1.4-2.7-3-2.7h-0.6v-0.5H250
				c2.1,0,4.6-0.5,5.6-0.8v1.4v0.8v3.7h-0.5v-0.8c0-1.4-1.1-2.7-2.6-2.7h-9.5v14.4h7.8c1.3,0,2.2-1.1,2.2-2.2v-0.6h0.5v7.4h-0.5
				v-0.6c0-1.3-1-2.2-2.2-2.2h-7.8v13.9h6.7c5,0,6.9-2.6,8.3-6.1h0.5L255.8,230.4z"/>
			<path class="st0" d="M297.1,197.8v0.5h-0.8c-1.6,0-2.9,1.3-2.9,2.7v24c0,3,0.5,5.9,0.5,5.9h-0.5L267.9,204v23.2
				c0,1.6,1.3,2.7,2.9,2.7h0.8v0.5H262v-0.5h0.8c1.6,0,2.9-1.3,2.9-2.9v-24.2c0-3.2-0.5-5.8-0.5-5.8h0.5l25.3,27.1v-23.1
				c0-1.6-1.3-2.9-2.9-2.9h-0.8v-0.5C287.3,197.8,297.1,197.8,297.1,197.8z"/>
			<path class="st0" d="M331.4,216.8l-0.6,7.4c-2.4,4-6.6,6.9-13.1,6.9c-9.8,0-16.7-6.7-16.7-17c0-10.1,6.7-17,17-17
				c4.5,0,8.3,1.3,11.1,3.2l1,6.6h-0.3c-1.4-5.4-5.9-8.3-11.5-8.3c-8.2,0-13.5,6.2-13.5,15.5c0,9.3,5.3,15.5,13.1,15.7
				c6.6,0,12.2-3.4,13.3-12.8h0.3V216.8z"/>
			<path class="st0" d="M365,197.8v0.5h-0.6c-1.9,0-3.7,1.3-4.6,2.7l-9.3,14.9v11.2c0,1.6,1.3,2.9,3,2.9h0.6v0.5h-10.3v-0.5h0.6
				c1.6,0,2.9-1.3,3-2.9v-11.2l-8.8-14.9c-1-1.4-2.7-2.7-4.6-2.7h-0.6v-0.5H345v0.5h-0.8c-1.3,0-2.2,1.6-1.6,2.9l7,13l7.4-13l0,0
				c0.8-1.3-0.5-2.9-1.6-2.9h-0.6v-0.5H365z"/>
		</g>
		<g>
			<path class="st0" d="M107.1,250.4c0-4.2,2.2-6.7,5.4-6.7s5.4,2.6,5.4,6.7c0,4.2-2.2,6.7-5.4,6.7
				C109.5,257.2,107.1,254.6,107.1,250.4z M116.7,250.4c0-3.4-1.6-5.4-4-5.4c-2.4,0-4,2.1-4,5.4c0,3.4,1.6,5.4,4,5.4
				C115.1,255.9,116.7,253.8,116.7,250.4z"/>
			<path class="st0" d="M127,243.9h1.4l5,8.5l1.4,2.7h0.2c-0.2-1.3-0.2-2.7-0.2-4v-7h1.4v13h-1.6l-5-8.5l-1.4-2.7h-0.2
				c0,1.3,0.2,2.6,0.2,4v7.2h-1.4v-13.1L127,243.9L127,243.9z"/>
			<path class="st0" d="M158.4,245.2h-4v-1.3h9.5v1.3h-4V257h-1.4V245.2z"/>
			<path class="st0" d="M172.1,243.9h1.4v5.6h6.2v-5.6h1.4v13h-1.4v-6.2h-6.2v6.2h-1.4V243.9z"/>
			<path class="st0" d="M190.9,243.9h7.4v1.3h-5.9v4.3h5v1.3h-5v5h6.1v1.3h-7.7L190.9,243.9L190.9,243.9z"/>
			<path class="st0" d="M217.2,243.9h1.8l2.6,7.2c0.3,1,0.6,1.9,1,2.7h0.2c0.3-1,0.6-1.9,1-2.7l2.6-7.2h1.8v13h-1.4v-7.5
				c0-1.1,0.2-2.6,0.2-3.8l0,0l-1,2.9l-2.6,7h-1l-2.6-7l-1-2.9l0,0c0,1.1,0.2,2.7,0.2,3.8v7.5h-1.3v-13H217.2z"/>
			<path class="st0" d="M237.3,251.7V244h1.4v7.8c0,3.2,1.4,4.2,3.2,4.2s3.2-1,3.2-4.2V244h1.4v7.7c0,4.2-2.1,5.4-4.6,5.4
				S237.3,255.9,237.3,251.7z"/>
			<path class="st0" d="M255,255.3l1-1c1,1,2.2,1.6,3.7,1.6c1.8,0,2.9-1,2.9-2.2c0-1.4-1-1.9-2.2-2.4l-1.9-0.8
				c-1.3-0.5-2.7-1.4-2.7-3.4c0-1.9,1.8-3.4,4-3.4c1.6,0,2.9,0.6,3.8,1.6l-0.8,1c-0.8-0.8-1.8-1.3-3-1.3c-1.4,0-2.6,0.8-2.6,1.9
				c0,1.3,1.1,1.8,2.2,2.2l1.9,0.8c1.4,0.6,2.7,1.6,2.7,3.5c0,2.1-1.8,3.7-4.3,3.7C257.7,257.2,256.1,256.4,255,255.3z"/>
			<path class="st0" d="M272.4,243.9h1.4v13h-1.4V243.9z"/>
			<path class="st0" d="M282.7,250.4c0-4.2,2.4-6.7,5.8-6.7c1.6,0,2.7,0.8,3.5,1.6l-0.8,1c-0.6-0.8-1.6-1.3-2.7-1.3
				c-2.6,0-4.2,2.1-4.2,5.4c0,3.4,1.6,5.4,4.2,5.4c1.3,0,2.2-0.5,3-1.4l0.8,1c-1,1.1-2.2,1.9-4,1.9
				C285.1,257.2,282.7,254.6,282.7,250.4z"/>
		</g>
	</g>
	<path class="st0" d="M266.5,102.9c-3.4-34-31.9-60.9-67-60.9c-34.8,0-63.7,26.7-67,60.9c-7.4,3.5-12.8,10.9-12.8,19.7
		c0,12,9.5,21.6,21.5,21.8v2.2c0,1.9,1.4,3.5,3.5,3.5c1.9,0,3.5-1.6,3.5-3.5v-7.4h25.9v-27.9l15.4-11.7l43.1,62.8
		c-9.6,5.9-21,9.5-33.2,9.5c-17.3,0-32.8-7-44-18.3h-6.4c12.3,13.9,30.4,23.1,50.5,23.1c20.2,0,38.1-8.8,50.5-23.1h-6.4
		c-2.2,2.2-4.5,4.3-7.2,6.2l-42.9-63.1l46.1-35.4c11.7,9.9,20,24.2,22.1,40.2c-1.3-0.2-2.4-0.5-3.7-0.5v-2.2c0-1.9-1.4-3.5-3.5-3.5
		c-1.9,0-3.5,1.4-3.5,3.5V147c0,1.9,1.4,3.5,3.5,3.5c1.9,0,3.5-1.6,3.5-3.5v-2.2c12-0.2,21.5-9.9,21.5-21.8
		C279.3,114.1,274.2,106.5,266.5,102.9z M148.4,134.6v-36c0-1.9-1.4-3.5-3.5-3.5c-1.9,0-3.5,1.4-3.5,3.5v2.4c-1.3,0-2.4,0.2-3.7,0.5
		c2.4-20.2,14.9-37.5,31.9-46.9v80.1H148.4z M174.4,105.7V52.3c7.8-3.5,16.3-5.3,25.3-5.3c13.5,0,25.9,4.3,36,11.5L174.4,105.7z"/>
</g>
</svg>
